<?xml version="1.0" encoding="UTF-8"?>
<svg version="1.1" xmlns="http://www.w3.org/2000/svg" width="600" height="600">
<path d="M0 0 C198 0 396 0 600 0 C600 198 600 396 600 600 C402 600 204 600 0 600 C0 402 0 204 0 0 Z " fill="#EAEAEA" transform="translate(0,0)"/>
<path d="M0 0 C0.99118332 -0.00350464 1.98236664 -0.00700928 3.00358582 -0.01062012 C6.26629733 -0.01939174 9.52879034 -0.01360345 12.79150391 -0.00683594 C15.06922446 -0.00818411 17.34694473 -0.01012592 19.62466431 -0.01263428 C24.39417261 -0.01557954 29.1636059 -0.01130786 33.93310547 -0.00195312 C40.03145526 0.009428 46.12962873 0.00288654 52.22797203 -0.00909805 C56.93099279 -0.01634382 61.63397213 -0.01401602 66.33699417 -0.00884247 C68.58475389 -0.00751281 70.83251742 -0.0091296 73.08027267 -0.01380157 C76.22939684 -0.01891004 79.37824035 -0.01109541 82.52734375 0 C83.44711502 -0.00404846 84.36688629 -0.00809692 85.31452942 -0.01226807 C101.79299454 0.09468473 116.13010456 6.79232871 128.08056641 18.00878906 C138.08277146 28.51513752 145.06763996 42.75971846 145.01332092 57.32621765 C145.01460256 58.57350426 145.01460256 58.57350426 145.01591009 59.84598857 C145.01756181 62.64205767 145.01204852 65.43806725 145.0065918 68.23413086 C145.00630983 70.23454792 145.00646784 72.23496508 145.0070343 74.23538208 C145.00732192 79.67512261 145.00143096 85.11484121 144.99446034 90.55457664 C144.98822086 96.23607507 144.98762253 101.91757398 144.98643494 107.59907532 C144.98332338 118.36189273 144.97511235 129.12470003 144.96508545 139.88751298 C144.95391887 152.13885959 144.94841248 164.39020667 144.94339001 176.6415571 C144.9329296 201.8473067 144.91533355 227.05304732 144.89306641 252.25878906 C125.41238477 252.32901173 105.93172897 252.38184202 86.45094681 252.41422558 C77.40475471 252.42966453 68.35864147 252.45069693 59.3125 252.48510742 C51.42370096 252.5151011 43.53495906 252.53438565 35.64610457 252.54105455 C31.47280153 252.54494999 27.29966188 252.55404216 23.12641144 252.57597923 C19.18987293 252.59650228 15.25356348 252.60259129 11.31697655 252.59811211 C9.88037809 252.59893029 8.44377113 252.60480111 7.00721931 252.61640549 C-10.20200824 252.74847735 -25.65102356 248.69679138 -38.54443359 236.88378906 C-50.46110695 225.48101619 -58.52548281 211.92551616 -59.24115467 195.10398579 C-59.24542815 194.02724692 -59.24970163 192.95050806 -59.25410461 191.84114075 C-59.26125992 190.59515106 -59.26841522 189.34916138 -59.27578735 188.06541443 C-59.2786269 186.70254542 -59.28133871 185.33967614 -59.28393555 183.97680664 C-59.29020891 182.52728109 -59.29685647 181.07775712 -59.30384827 179.62823486 C-59.32478569 174.88660785 -59.33524037 170.14498089 -59.34521484 165.40332031 C-59.34926614 163.76447725 -59.35338317 162.12563435 -59.35756493 160.48679161 C-59.37659324 152.78530146 -59.39082968 145.08382075 -59.3991769 137.38231164 C-59.40894335 128.52017968 -59.43525726 119.65829786 -59.47567779 110.79625398 C-59.50592325 103.92719026 -59.52065369 97.05819794 -59.52395791 90.18906897 C-59.52629854 86.09519447 -59.53512974 82.00158793 -59.56041908 77.90778542 C-59.58385357 74.05234165 -59.58787209 70.19733943 -59.5776577 66.34184265 C-59.57716596 64.93587454 -59.5833783 63.52988351 -59.59721375 62.12398338 C-59.75576589 45.0413454 -54.11158764 30.94511589 -42.41723633 18.47338867 C-30.85222943 6.64372741 -16.49566495 -0.07228907 0 0 Z " fill="#2C2C2C" transform="translate(257.10693359375,123.7412109375)"/>
<path d="M0 0 C0.96069397 0.00007553 1.92138794 0.00015106 2.91119385 0.00022888 C3.94049011 0.00539017 4.96978638 0.01055145 6.03027344 0.01586914 C7.61989899 0.01799156 7.61989899 0.01799156 9.24163818 0.02015686 C12.62433705 0.02575158 16.00696959 0.03830314 19.38964844 0.05102539 C21.68391831 0.05604107 23.97818923 0.06060386 26.27246094 0.06469727 C31.89488231 0.07571928 37.51725413 0.09298032 43.13964844 0.11352539 C43.13964844 5.39352539 43.13964844 10.67352539 43.13964844 16.11352539 C41.36134644 16.12754395 41.36134644 16.12754395 39.54711914 16.1418457 C35.13918798 16.18178538 30.73195186 16.2475552 26.32446289 16.32104492 C24.41862939 16.34923149 22.51267949 16.37045755 20.60668945 16.38452148 C17.86316438 16.40598322 15.12103531 16.45264904 12.37792969 16.50415039 C11.52878494 16.50537903 10.6796402 16.50660767 9.80476379 16.50787354 C9.00431137 16.52759216 8.20385895 16.54731079 7.37915039 16.56762695 C6.67965775 16.5765094 5.9801651 16.58539185 5.25947571 16.59454346 C2.05099691 17.38005205 0.46106987 18.77453198 -1.86035156 21.11352539 C-2.36284438 23.76469119 -2.53403988 25.78291761 -2.48854065 28.43235779 C-2.49563504 29.17137064 -2.50272942 29.91038348 -2.51003879 30.67179066 C-2.52764933 33.14956047 -2.50949996 35.62576784 -2.49145508 38.10351562 C-2.49659281 39.87922887 -2.50387298 41.65493703 -2.51313782 43.43063354 C-2.53168007 48.25515012 -2.51869495 53.07911529 -2.49904752 57.90360904 C-2.48268044 62.95015545 -2.49147132 67.99666639 -2.49656677 73.04322815 C-2.50109032 81.51963117 -2.48520274 89.9958137 -2.45727539 98.47216797 C-2.42523266 108.27318958 -2.42523439 118.07381326 -2.44249016 127.87486309 C-2.45835313 137.29994284 -2.45162248 146.72487666 -2.43455315 156.14995003 C-2.42767896 160.16223088 -2.42871892 164.17439489 -2.4360981 168.18667412 C-2.44375817 172.91212586 -2.43164388 177.63712473 -2.40424919 182.36249924 C-2.39736096 184.09711297 -2.39727209 185.83176896 -2.40446472 187.56638145 C-2.41315097 189.93399653 -2.39721905 192.30021138 -2.37501526 194.66770935 C-2.38325603 195.35467831 -2.39149679 196.04164726 -2.39998728 196.74943346 C-2.34596813 199.86893704 -1.82983676 202.18273147 -0.57034111 205.0392065 C3.87871947 208.44466997 8.56682332 207.80099666 14.0141449 207.7484436 C15.85770359 207.76014353 15.85770359 207.76014353 17.7385059 207.77207983 C21.15217392 207.78859674 24.56447036 207.78262213 27.9780556 207.76714873 C31.65846373 207.75585437 35.33875038 207.77328842 39.01913452 207.78704834 C46.23002968 207.80930659 53.44066494 207.80446797 60.65157037 207.78998514 C66.51148493 207.77870213 72.37132655 207.77715791 78.23124886 207.78260422 C79.06464701 207.78337038 79.89804517 207.78413655 80.75669782 207.78492593 C82.44964005 207.78652453 84.14258226 207.78814559 85.83552445 207.78978889 C101.71867106 207.80405419 117.6016735 207.78764191 133.48479647 207.76078705 C147.11697107 207.73845165 160.74893277 207.74232407 174.38110352 207.76538086 C190.20509395 207.79213219 206.02895791 207.80267649 221.8529678 207.78731954 C223.54005593 207.78572677 225.22714408 207.78415492 226.91423225 207.78260422 C227.74434593 207.78183284 228.57445961 207.78106146 229.42972825 207.78026671 C235.28294515 207.77594739 241.13608193 207.78324132 246.98928642 207.79500198 C254.12206035 207.80901833 261.25455913 207.80524565 268.3873015 207.77859826 C272.02750675 207.7654475 275.6672531 207.76032843 279.30745506 207.77684402 C283.25128627 207.79446666 287.19436428 207.77344077 291.13816833 207.7484436 C292.86899246 207.76517402 292.86899246 207.76517402 294.63478273 207.78224242 C299.42349218 207.72311431 302.26865054 207.67629691 306.35005856 205.0392065 C308.52055297 201.49080998 308.84023465 198.71230875 308.77456665 194.66770935 C308.78626658 193.55685009 308.78626658 193.55685009 308.79820287 192.42354923 C308.8181177 189.94657088 308.80236177 187.47112987 308.78662109 184.99414062 C308.79339743 183.21665552 308.80230066 181.43917743 308.81317139 179.66171265 C308.8359678 174.83733878 308.82712743 170.01349946 308.81127596 165.18911624 C308.79862073 160.14209978 308.81035584 155.09512921 308.81820679 150.04811096 C308.82730361 141.57349423 308.81531368 133.09909537 308.79150391 124.62451172 C308.76428382 114.82282707 308.7731131 105.02166228 308.80063593 95.21999019 C308.82331458 86.80711234 308.82653344 78.39439112 308.81344259 69.98149258 C308.80564236 64.95560212 308.80462237 59.92995616 308.82112503 54.90408134 C308.83555274 50.1801897 308.82557936 45.45696947 308.79665375 40.73315048 C308.79003419 38.99811354 308.79195546 37.26302023 308.80296707 35.5280056 C308.81660057 33.16202319 308.79953709 30.79820184 308.77456665 28.43235779 C308.78572026 27.74315811 308.79687387 27.05395843 308.80836546 26.34387392 C308.73289079 22.66600665 308.36637319 21.34192642 305.73245525 18.68853474 C303.14398602 17.11616027 301.87341711 16.60538277 298.90014648 16.56762695 C297.69946785 16.53804901 297.69946785 16.53804901 296.47453308 16.50787354 C295.62538834 16.5066449 294.77624359 16.50541626 293.90136719 16.50415039 C293.02060013 16.48761414 292.13983307 16.47107788 291.2323761 16.45404053 C288.43056223 16.40561469 285.6292909 16.38420186 282.82714844 16.36352539 C280.92282435 16.33536114 279.01852547 16.30543307 277.11425781 16.27368164 C272.45609936 16.19985725 267.79824114 16.1502496 263.13964844 16.11352539 C263.13964844 10.83352539 263.13964844 5.55352539 263.13964844 0.11352539 C269.82905805 0.01429864 276.51803474 -0.05811338 283.20800781 -0.10620117 C285.48152128 -0.12625778 287.75498354 -0.15350999 290.02832031 -0.18823242 C293.30514193 -0.23701173 296.58127869 -0.25950358 299.85839844 -0.27709961 C301.37137512 -0.30806732 301.37137512 -0.30806732 302.91491699 -0.33966064 C310.19447624 -0.34195068 315.62555686 1.02003937 321.16308594 5.89477539 C321.60910156 6.46196289 322.05511719 7.02915039 322.51464844 7.61352539 C323.206875 8.46430664 323.206875 8.46430664 323.91308594 9.33227539 C327.00210502 13.81823941 327.42999158 17.42683612 327.40707397 22.82304382 C327.41160509 23.60415348 327.4161362 24.38526314 327.42080462 25.19004279 C327.43347474 27.8100234 327.43182656 30.42979682 327.43017578 33.04980469 C327.43615954 34.92739632 327.44296473 36.80498549 327.45053101 38.68257141 C327.46821708 43.78609499 327.47288758 48.88955153 327.47416258 53.99310279 C327.47606136 58.25480032 327.48341894 62.51648223 327.49050677 66.77817374 C327.5067994 76.83617335 327.51167505 86.89413715 327.51025391 96.95214844 C327.50905327 107.3210915 327.53013752 117.68982614 327.56174123 128.05871648 C327.58791549 136.96418189 327.59862067 145.86957931 327.59734309 154.77508289 C327.59683365 160.09232931 327.60250639 165.40939068 327.62369919 170.72659874 C327.64309999 175.73106611 327.64319334 180.73517233 327.62866592 185.73965263 C327.62657879 187.57258381 327.63127302 189.40553769 327.64338684 191.23843002 C327.76339108 210.65988023 327.76339108 210.65988023 320.70214844 218.98852539 C316.3473525 222.59981958 313.28824189 224.4868708 307.55199051 224.49942875 C305.8733532 224.51393876 305.8733532 224.51393876 304.16080403 224.5287419 C302.93640386 224.52409609 301.71200369 224.51945028 300.45050049 224.5146637 C299.1458417 224.52146037 297.84118291 224.52825704 296.49698901 224.53525966 C292.87710038 224.55361428 289.25741959 224.55321291 285.63749504 224.54967654 C281.73277454 224.54906452 277.82812081 224.56562086 273.9234314 224.57984924 C266.27358208 224.60477154 258.62380212 224.61301391 250.97391561 224.61468638 C244.75508928 224.61611187 238.53628583 224.62227615 232.31746674 224.63178825 C214.68457774 224.65820986 197.05174353 224.67204625 179.4188346 224.66979683 C178.46818754 224.66967696 177.51754048 224.66955709 176.53808594 224.66943359 C175.58627751 224.66931095 174.63446909 224.66918831 173.65381798 224.66906195 C158.23098936 224.6678428 142.80838055 224.69654495 127.3856155 224.73884869 C111.54827427 224.78194663 95.71104023 224.80265885 79.87363887 224.80006737 C70.98269416 224.79907161 62.09197983 224.80730557 53.20108795 224.83960152 C45.63037692 224.86692567 38.06000066 224.87343543 30.48926166 224.85307325 C26.62771942 224.84328116 22.76681934 224.84309186 18.90533829 224.869133 C14.71531718 224.89709861 10.52678113 224.87839159 6.33673096 224.85523987 C5.12125367 224.87067056 3.90577639 224.88610125 2.65346646 224.90199953 C-4.93703356 224.80928648 -10.29386852 223.50950293 -15.86035156 218.11352539 C-19.80268362 212.15657507 -21.00944196 206.59911245 -21.01425171 199.51753235 C-21.01863396 198.73657155 -21.02301622 197.95561075 -21.02753127 197.15098447 C-21.0409203 194.52562133 -21.04709837 191.90029177 -21.05322266 189.27490234 C-21.06112356 187.39583688 -21.06939251 185.51677292 -21.07800293 183.63771057 C-21.10422518 177.45909067 -21.11953116 171.28046399 -21.13378906 165.10180664 C-21.13914873 162.97502322 -21.14452624 160.84823985 -21.14992142 158.72145653 C-21.17155077 149.87449512 -21.1902874 141.02753555 -21.20154381 132.18055439 C-21.21778231 119.50117359 -21.25095722 106.82209927 -21.30794466 94.14283401 C-21.34664637 85.22807253 -21.36617681 76.31339302 -21.37146437 67.39854974 C-21.3751176 62.07398963 -21.38713603 56.74975641 -21.41956711 51.42528725 C-21.44965146 46.41423493 -21.45595814 41.40370721 -21.44418335 36.39258385 C-21.44396264 34.55599385 -21.45226518 32.71937948 -21.46983719 30.88287354 C-21.56574959 20.27936338 -21.45061886 13.23841285 -13.98144531 5.05493164 C-13.42585937 4.59989258 -12.87027344 4.14485352 -12.29785156 3.67602539 C-11.7396875 3.20293945 -11.18152344 2.72985352 -10.60644531 2.24243164 C-7.26849798 0.08434042 -3.89479645 -0.01024946 0 0 Z " fill="#2C2C2C" transform="translate(146.8603515625,186.886474609375)"/>
<path d="M0 0 C1.24962512 -0.00807831 1.24962512 -0.00807831 2.52449518 -0.01631981 C5.31429661 -0.03062027 8.10362495 -0.02349054 10.89344788 -0.01637268 C12.89428082 -0.02207515 14.89511051 -0.02903893 16.89593506 -0.03717041 C22.32979966 -0.05513041 27.76350303 -0.05392808 33.19738841 -0.04822803 C37.73280966 -0.04514031 42.26819976 -0.05122397 46.80361658 -0.05726677 C57.50253196 -0.0713197 68.2013675 -0.06974428 78.90028381 -0.05836487 C89.94016399 -0.04688233 100.97980128 -0.06095995 112.01964945 -0.08776134 C121.49664076 -0.10990772 130.97355577 -0.11655812 140.45057112 -0.11068493 C146.11142356 -0.10731169 151.77212028 -0.10975491 157.43295097 -0.12693596 C162.75589204 -0.14238603 168.07847288 -0.13847091 173.40139961 -0.11963081 C175.35491491 -0.1159396 177.30845678 -0.11906886 179.26194763 -0.1295166 C181.92903616 -0.14269176 184.59492604 -0.13121012 187.26196289 -0.11352539 C188.0348287 -0.1231304 188.8076945 -0.1327354 189.60398048 -0.14263147 C194.77778828 -0.0720561 197.70552957 1.12724226 201.69447327 4.38768005 C203.87066617 7.14419106 204.62477092 8.84167834 205.06947327 12.32518005 C204.62048951 15.99188073 203.69579273 18.28218434 201.69447327 21.38768005 C197.46125918 24.73344682 193.47398844 24.82395177 188.28178406 24.80227661 C187.43715556 24.81048441 186.59252705 24.81869221 185.72230375 24.82714874 C182.89342607 24.85081339 180.06494703 24.85304732 177.23597717 24.85520935 C175.20720694 24.86746049 173.17844366 24.88091284 171.14968872 24.89547729 C165.63935251 24.93053871 160.1291361 24.9457879 154.61870241 24.9553144 C151.17611362 24.96188911 147.73355663 24.97223365 144.29098129 24.98381996 C132.2812613 25.02355717 120.27163723 25.04557837 108.26185608 25.05345154 C97.06614429 25.0613258 85.87111684 25.1105805 74.67562354 25.17851704 C65.06358186 25.23480853 55.45176802 25.26036373 45.83956277 25.26239902 C40.09851516 25.26424091 34.35818944 25.27892455 28.61731339 25.32521629 C23.21776104 25.3678318 17.81950929 25.37226552 12.41985893 25.34742165 C10.43931823 25.34483344 8.45870503 25.35590416 6.47833061 25.38169861 C-8.42735631 25.56416883 -8.42735631 25.56416883 -13.04745865 22.67012978 C-16.0455764 19.41307041 -17.16497315 17.12878078 -17.99302673 12.76268005 C-17.00153935 7.89537835 -15.11689285 4.79185715 -11.1800909 1.74003506 C-7.43200008 -0.02327551 -4.0573475 -0.03146039 0 0 Z " fill="#2C2C2C" transform="translate(206.30552673339844,451.61231994628906)"/>
<path d="M0 0 C19.8 0 39.6 0 60 0 C60 7.92 60 15.84 60 24 C40.2 24 20.4 24 0 24 C0 16.08 0 8.16 0 0 Z " fill="#2A2A2A" transform="translate(270,420)"/>
<path d="M0 0 C1.02151437 -0.00037703 2.04302874 -0.00075405 3.09549809 -0.0011425 C4.26354984 -0.00396233 5.4316016 -0.00678215 6.63504887 -0.00968742 C7.92806416 -0.00766319 9.22107944 -0.00563896 10.55327702 -0.00355339 C11.91962067 -0.00490743 13.28596396 -0.00668737 14.65230656 -0.00886345 C18.37334638 -0.01343794 22.0943586 -0.01164805 25.81539893 -0.00848436 C29.7022333 -0.00596033 33.58906524 -0.00829847 37.4758997 -0.00987053 C44.00543996 -0.01169231 50.53496893 -0.00928591 57.06450748 -0.00452995 C64.62109706 0.00091041 72.17765966 -0.00084831 79.73424858 -0.00635636 C86.21238036 -0.01088995 92.690504 -0.01153676 99.16863686 -0.00891769 C103.04196112 -0.00735598 106.9152727 -0.00715822 110.78859615 -0.01045418 C114.43041087 -0.01333637 118.07219071 -0.01135075 121.71400166 -0.00555992 C123.69362432 -0.00360007 125.67324993 -0.00658344 127.65287113 -0.00968742 C128.82374271 -0.0068676 129.9946143 -0.00404778 131.20096684 -0.0011425 C132.73380393 -0.00057696 132.73380393 -0.00057696 134.29760742 0 C136.71172428 0.12584114 136.71172428 0.12584114 138.71172428 1.12584114 C138.83672428 3.50084114 138.83672428 3.50084114 138.71172428 6.12584114 C136.71172428 8.12584114 136.71172428 8.12584114 134.30040073 8.37752342 C133.27980816 8.37827747 132.25921558 8.37903152 131.20769596 8.37980843 C130.03826954 8.38544807 128.86884312 8.39108772 127.66397953 8.39689827 C126.37455952 8.39284981 125.0851395 8.38880135 123.75664616 8.3846302 C122.39015357 8.38733913 121.02366245 8.39089951 119.65717411 8.39525032 C115.9402984 8.40438835 112.2235334 8.40082429 108.50665569 8.39449215 C104.62249414 8.38943945 100.73834225 8.39412156 96.85418034 8.39726448 C90.3306034 8.40090626 83.8070717 8.39609949 77.28350163 8.38658333 C69.734248 8.37569836 62.18510239 8.37922378 54.63585138 8.39023614 C48.16193862 8.39930299 41.68805843 8.40059725 35.21414137 8.3953588 C31.34417194 8.39223578 27.47425334 8.39183883 23.60428715 8.39843178 C19.96652433 8.4041959 16.3289012 8.40022563 12.69115353 8.38864326 C10.71392733 8.38472362 8.73668937 8.39069028 6.75946903 8.39689827 C5.59004261 8.39125862 4.42061619 8.38561897 3.2157526 8.37980843 C2.19516003 8.37905437 1.17456745 8.37830032 0.12304783 8.37752342 C-2.28827572 8.12584114 -2.28827572 8.12584114 -4.28827572 6.12584114 C-3.56513173 0.1960604 -3.56513173 0.1960604 0 0 Z " fill="#E0E0E0" transform="translate(235.28827571868896,236.87415885925293)"/>
<path d="M0 0 C1.53227155 -0.00251377 1.53227155 -0.00251377 3.09549809 -0.00507832 C4.26354984 -0.0093433 5.4316016 -0.01360828 6.63504887 -0.01800251 C7.92806416 -0.01754932 9.22107944 -0.01709614 10.55327702 -0.01662922 C11.91962114 -0.01961917 13.28596441 -0.02302131 14.65230656 -0.02680683 C18.37334183 -0.03566779 22.09435413 -0.03798582 25.81539893 -0.03862262 C28.91695274 -0.03956999 32.01850114 -0.04324631 35.12005287 -0.04679471 C42.43487384 -0.05494724 49.7496825 -0.05737822 57.06450748 -0.05666828 C64.62111765 -0.05606728 72.17765647 -0.06662174 79.73424858 -0.08241194 C86.21238144 -0.09546842 92.69049093 -0.10085298 99.16863686 -0.10021287 C103.04198209 -0.09995732 106.91526397 -0.10283959 110.78859615 -0.11339092 C114.43043801 -0.12304017 118.07215553 -0.12317308 121.71400166 -0.11587429 C123.6936309 -0.11432243 125.67326004 -0.1226973 127.65287113 -0.13131428 C128.82374271 -0.12711979 129.9946143 -0.1229253 131.20096684 -0.11860371 C132.22285823 -0.11914847 133.24474962 -0.11969324 134.29760742 -0.12025452 C136.71172428 0.12863445 136.71172428 0.12863445 138.71172428 2.12863445 C138.15616873 6.68419001 138.15616873 6.68419001 136.71172428 8.12863445 C134.91940931 8.22938868 133.12309273 8.2594022 131.32795048 8.26234722 C130.15989872 8.26661221 128.99184696 8.27087719 127.7883997 8.27527142 C126.49538441 8.27481823 125.20236912 8.27436504 123.87017155 8.27389812 C122.50382743 8.27688807 121.13748415 8.28029022 119.77114201 8.28407574 C116.05010673 8.29293669 112.32909443 8.29525473 108.60804963 8.29589152 C105.50649582 8.2968389 102.40494742 8.30051521 99.30339569 8.30406362 C91.98857472 8.31221615 84.67376607 8.31464713 77.35894108 8.31393719 C69.80233091 8.31333618 62.24579209 8.32389064 54.68919998 8.33968085 C48.21106712 8.35273732 41.73295763 8.35812188 35.2548117 8.35748178 C31.38146647 8.35722623 27.50818459 8.3601085 23.63485241 8.37065983 C19.99301055 8.38030907 16.35129303 8.38044199 12.70944691 8.3731432 C10.72981767 8.37159133 8.75018853 8.37996621 6.77057743 8.38858318 C5.59970585 8.38438869 4.42883427 8.38019421 3.22248173 8.37587261 C2.20059033 8.37641738 1.17869894 8.37696215 0.12584114 8.37752342 C-2.28827572 8.12863445 -2.28827572 8.12863445 -4.28827572 6.12863445 C-3.56532312 0.20042313 -3.56532312 0.20042313 0 0 Z " fill="#E1E1E1" transform="translate(235.28827571868896,266.8713655471802)"/>
<path d="M0 0 C0.99939134 -0.00167584 1.99878267 -0.00335169 3.0284586 -0.00507832 C4.17126789 -0.0093433 5.31407719 -0.01360828 6.49151707 -0.01800251 C7.75648014 -0.01754932 9.02144321 -0.01709614 10.3247385 -0.01662922 C11.66152637 -0.01961919 12.99831337 -0.02302134 14.33509922 -0.02680683 C17.97555865 -0.03566757 21.6159946 -0.03798581 25.25646377 -0.03862262 C28.29091376 -0.03957002 31.32535824 -0.04324636 34.35980612 -0.04679471 C41.51641401 -0.05494717 48.67300932 -0.05737823 55.82962132 -0.05666828 C63.22263742 -0.05606728 70.6155806 -0.06662164 78.00857824 -0.08241194 C84.34658495 -0.09546871 90.68456777 -0.10085296 97.02258784 -0.10021287 C100.8120966 -0.09995733 104.60154061 -0.10283915 108.39103603 -0.11339092 C111.95408429 -0.12304066 115.51700548 -0.12317274 119.0800581 -0.11587429 C121.01674733 -0.11432254 122.95343647 -0.12269697 124.89010715 -0.13131428 C126.03573627 -0.12711979 127.18136539 -0.1229253 128.36171055 -0.11860371 C129.86136309 -0.11942086 129.86136309 -0.11942086 131.39131165 -0.12025452 C133.75857639 0.12863445 133.75857639 0.12863445 135.75857639 2.12863445 C135.94607639 4.69113445 135.94607639 4.69113445 135.75857639 7.12863445 C134.75857639 8.12863445 134.75857639 8.12863445 132.50153542 8.25726891 C131.49476974 8.25894475 130.48800406 8.26062059 129.45073032 8.26234722 C128.29950687 8.26661221 127.14828342 8.27087719 125.96217442 8.27527142 C124.6878606 8.27481823 123.41354679 8.27436504 122.10061741 8.27389812 C120.75397746 8.27688809 119.40733837 8.28029024 118.06070042 8.28407574 C114.39338237 8.29293655 110.72608764 8.29525472 107.05875993 8.29589152 C104.00194199 8.29683892 100.94512954 8.30051525 97.88831371 8.30406362 C90.67896813 8.3122161 83.46963504 8.31464713 76.26028538 8.31393719 C68.81273792 8.31333619 61.36526286 8.32389058 53.91773373 8.33968085 C47.5330183 8.35273752 41.14832659 8.35812187 34.76359791 8.35748178 C30.94614365 8.35722623 27.12875368 8.36010821 23.31131268 8.37065983 C19.72199989 8.3803094 16.13281325 8.38044176 12.54349613 8.3731432 C10.59249356 8.37159141 8.64149109 8.37996599 6.69050694 8.38858318 C4.95944202 8.38229145 4.95944202 8.38229145 3.19340611 8.37587261 C2.1862634 8.37641738 1.17912069 8.37696215 0.14145851 8.37752342 C-2.24142361 8.12863445 -2.24142361 8.12863445 -4.24142361 6.12863445 C-3.5186553 0.2019343 -3.5186553 0.2019343 0 0 Z " fill="#DFDFDF" transform="translate(238.24142360687256,296.8713655471802)"/>
<path d="M0 0 C1.54389861 0.00081715 1.54389861 0.00081715 3.11898708 0.00165081 C4.88791569 -0.00464092 4.88791569 -0.00464092 6.69258022 -0.01105976 C7.99292202 -0.00544025 9.29326382 0.00017925 10.63300991 0.00596905 C12.01097612 0.00489657 13.38894189 0.00295839 14.76690578 0.00021648 C18.5147132 -0.00464001 22.26240195 0.00303345 26.01019502 0.01316953 C29.92551657 0.02193548 33.84083424 0.02019288 37.7561636 0.01980877 C44.33101806 0.02074598 50.90582643 0.02943814 57.48066616 0.04307842 C65.0923987 0.05881107 72.70408076 0.06407634 80.31582838 0.06334287 C87.62648762 0.06273345 94.93713034 0.06783061 102.24778461 0.07613468 C105.3646034 0.07967377 108.48141634 0.08149882 111.59823704 0.08202839 C115.26469121 0.08302973 118.93110267 0.08910917 122.59754276 0.09919453 C124.59285069 0.10352956 126.58816737 0.10294632 128.58347988 0.10225201 C129.75994579 0.10651699 130.93641171 0.11078197 132.1485281 0.1151762 C133.69186117 0.11768997 133.69186117 0.11768997 135.26637268 0.12025452 C137.57026577 0.24888897 137.57026577 0.24888897 138.57026577 1.24888897 C138.69526577 3.74888897 138.69526577 3.74888897 138.57026577 6.24888897 C137.57026577 7.24888897 137.57026577 7.24888897 135.24516869 7.3719368 C133.68687765 7.37055411 133.68687765 7.37055411 132.09710598 7.36914349 C130.3154504 7.37120548 130.3154504 7.37120548 128.49780178 7.37330914 C126.5255135 7.36791622 126.5255135 7.36791622 124.513381 7.36241436 C123.12408863 7.36213249 121.7347961 7.36229022 120.34550381 7.36285686 C116.56261288 7.36314485 112.77975339 7.35724798 108.9968698 7.35028291 C105.047709 7.34404952 101.09854755 7.34344558 97.14938259 7.3422575 C89.66601502 7.33914414 82.18266198 7.33093069 74.69930083 7.32090801 C66.18190844 7.30974702 57.66451537 7.30423646 49.1471175 7.29921257 C31.62149183 7.28874808 14.09588034 7.27114855 -3.42973423 7.24888897 C-4.05473423 4.87388897 -4.05473423 4.87388897 -4.42973423 2.24888897 C-2.42973423 0.24888897 -2.42973423 0.24888897 0 0 Z " fill="#E9E9E9" transform="translate(235.4297342300415,206.7511110305786)"/>
<path d="M0 0 C2.3925 -0.0825 4.785 -0.165 7.25 -0.25 C7.99668945 -0.28641602 8.74337891 -0.32283203 9.51269531 -0.36035156 C12.89562674 -0.41676408 14.70348077 -0.21603544 17.4609375 1.79296875 C19.66498717 4.95359836 19.41038898 7.23810105 19 11 C18.01 12.485 18.01 12.485 17 14 C17.495 14.37125 17.99 14.7425 18.5 15.125 C20 17 20 17 20.5 19.875 C19.82014697 24.12408142 18.35734566 25.36113518 15 28 C12.11628549 28.37353815 10.01710038 28.48712853 7.1875 28.3125 C4.815625 28.209375 2.44375 28.10625 0 28 C0 18.76 0 9.52 0 0 Z " fill="#E1E1E1" transform="translate(253,159)"/>
<path d="M0 0 C2.8100346 1.79363911 4.50940468 3.01880935 6 6 C6.23031261 8.78998948 6.36981022 11.51854586 6.4375 14.3125 C6.48326172 15.07240234 6.52902344 15.83230469 6.57617188 16.61523438 C6.68513272 22.06801391 6.68513272 22.06801391 4.79589844 24.63793945 C1.86389205 27.25593561 -0.69460058 28.68055087 -4.625 28.5625 C-7.82554205 28.37930399 -8.82910475 28.12389906 -11.5 26.1875 C-14.29144988 22.11663559 -14.22242534 18.45110535 -14.3125 13.625 C-14.34988281 12.31789062 -14.38726562 11.01078125 -14.42578125 9.6640625 C-13.9403154 5.48638393 -12.95072654 3.92335431 -10 1 C-6.79826746 -0.60086627 -3.47422941 -0.49917089 0 0 Z " fill="#E3E3E3" transform="translate(319,159)"/>
<path d="M0 0 C0.93328629 -0.0038118 1.86657257 -0.0076236 2.82814026 -0.0115509 C3.8827092 -0.01793076 4.93727814 -0.02431061 6.02380371 -0.03088379 C7.17167862 -0.03199661 8.31955353 -0.03310944 9.50221252 -0.03425598 C10.67244461 -0.03758438 11.8426767 -0.04091278 13.04837036 -0.04434204 C15.52915553 -0.04941632 18.00994756 -0.05175021 20.49073792 -0.05158997 C24.29871297 -0.05377581 28.1063982 -0.07192474 31.9143219 -0.09089661 C34.31861778 -0.09383047 36.72291504 -0.09581531 39.12721252 -0.09675598 C40.2730632 -0.1039415 41.41891388 -0.11112701 42.5994873 -0.11853027 C44.18606895 -0.11391533 44.18606895 -0.11391533 45.80470276 -0.10920715 C46.73878464 -0.11063217 47.67286652 -0.11205719 48.63525391 -0.11352539 C50.88111877 0.13371277 50.88111877 0.13371277 52.88111877 2.13371277 C52.34540449 5.66942705 52.34540449 5.66942705 50.88111877 7.13371277 C49.22920481 7.23239786 47.5730866 7.26170114 45.91822815 7.2631073 C44.86043152 7.26625946 43.80263489 7.26941162 42.71278381 7.2726593 C41.56177185 7.27063507 40.41075989 7.26861084 39.22486877 7.26652527 C37.46596313 7.26796036 37.46596313 7.26796036 35.67152405 7.26942444 C33.18653815 7.27010647 30.70155049 7.26825061 28.21656799 7.26408386 C24.3976799 7.25873596 20.57890943 7.26402813 16.76002502 7.27043152 C14.35247268 7.26977074 11.94492041 7.26848959 9.53736877 7.26652527 C7.81085083 7.26956161 7.81085083 7.26956161 6.04945374 7.2726593 C4.9916571 7.26950714 3.93386047 7.26635498 2.8440094 7.2631073 C1.43955566 7.26191391 1.43955566 7.26191391 0.00672913 7.26069641 C-2.11888123 7.13371277 -2.11888123 7.13371277 -3.11888123 6.13371277 C-3.24388123 3.63371277 -3.24388123 3.63371277 -3.11888123 1.13371277 C-2.11888123 0.13371277 -2.11888123 0.13371277 0 0 Z " fill="#E9E9E9" transform="translate(278.11888122558594,327.8662872314453)"/>
<path d="M0 0 C3.0625 2.3125 3.0625 2.3125 5 5 C5 5.99 5 6.98 5 8 C1.28400809 8.20086443 0.22791555 8.1519437 -3 6 C-5.64632287 6.3121764 -5.64632287 6.3121764 -8 7 C-8.02685412 9.31243792 -8.04632841 11.6249627 -8.0625 13.9375 C-8.07410156 15.22527344 -8.08570313 16.51304687 -8.09765625 17.83984375 C-8.36532549 20.86298403 -8.36532549 20.86298403 -7 22 C-5.33382885 22.04063832 -3.66611905 22.042721 -2 22 C-1.34 20.68 -0.68 19.36 0 18 C-1.32 18 -2.64 18 -4 18 C-4 16.02 -4 14.04 -4 12 C-0.7 12 2.6 12 6 12 C6.3896808 18.42973314 6.35226764 21.87968513 2 27 C-1.47263273 28.73631636 -5.21193013 28.60190402 -9 28 C-11.75569447 25.81840855 -13.43588747 24.12822506 -15 21 C-15.97354694 7.445231 -15.97354694 7.445231 -12 2 C-7.99211807 -0.67192129 -4.7118583 -0.8251941 0 0 Z " fill="#DBDBDB" transform="translate(347,159)"/>
<path d="M0 0 C1.65 0 3.3 0 5 0 C5 7.59 5 15.18 5 23 C9.29 23 13.58 23 18 23 C18 24.65 18 26.3 18 28 C12.06 28 6.12 28 0 28 C0 18.76 0 9.52 0 0 Z " fill="#E5E5E5" transform="translate(281,159)"/>
<path d="M0 0 C2.4375 0.8125 2.4375 0.8125 4.4375 2.8125 C4.73828125 5.52734375 4.73828125 5.52734375 4.75 8.75 C4.76675781 9.81089844 4.78351563 10.87179688 4.80078125 11.96484375 C4.4375 14.8125 4.4375 14.8125 3.11328125 16.703125 C1.4375 17.8125 1.4375 17.8125 -1.6875 17.625 C-2.63625 17.356875 -3.585 17.08875 -4.5625 16.8125 C-5.91531371 14.10687257 -5.76859362 11.89356345 -5.8125 8.875 C-5.83828125 7.81410156 -5.8640625 6.75320312 -5.890625 5.66015625 C-5.5625 2.8125 -5.5625 2.8125 -4.20703125 0.921875 C-2.5625 -0.1875 -2.5625 -0.1875 0 0 Z " fill="#363636" transform="translate(315.5625,164.1875)"/>
<path d="M0 0 C5.56818182 0.56818182 5.56818182 0.56818182 7 2 C8.99958364 2.04080783 11.00045254 2.04254356 13 2 C12.67 3.32 12.34 4.64 12 6 C9.03 6 6.06 6 3 6 C3 8.31 3 10.62 3 13 C4.32 13 5.64 13 7 13 C6.125 16.875 6.125 16.875 5 18 C2.5625 18.1875 2.5625 18.1875 0 18 C-2 16 -2 16 -2.265625 12.8125 C-2.26046875 11.554375 -2.2553125 10.29625 -2.25 9 C-2.25515625 7.741875 -2.2603125 6.48375 -2.265625 5.1875 C-2 2 -2 2 0 0 Z " fill="#353535" transform="translate(340,164)"/>
<path d="M0 0 C6.15234375 -0.09765625 6.15234375 -0.09765625 8 0 C9 1 9 1 9.125 3.5 C9 6 9 6 8 7 C5.32941149 7.14115161 2.67567762 7.04247107 0 7 C0 4.69 0 2.38 0 0 Z " fill="#363636" transform="translate(258,175)"/>
<path d="M0 0 C2.64 0 5.28 0 8 0 C8.38218767 1.65614657 8.71395102 3.32457024 9 5 C8 6 8 6 6.15234375 6.09765625 C4.1015625 6.06510417 2.05078125 6.03255208 0 6 C0 4.02 0 2.04 0 0 Z " fill="#353535" transform="translate(258,164)"/>
</svg>
